<svg width="150" height="170" viewBox="0 0 150 170" fill="none" xmlns="http://www.w3.org/2000/svg">
<rect width="150" height="170" fill="white"/>
<rect x="8.99998" y="15" width="81" height="102" fill="#C4C4C4"/>
<path d="M8.99998 15H90.5L104 38H23L8.99998 15Z" fill="#CFC7FF"/>
<rect x="23" y="38" width="81" height="102" fill="#7D69F3"/>
<path d="M31 17H49V30.0269C42.9576 31.4046 38.8998 31.2416 31 30.0269V17Z" fill="#7D69F3"/>
<rect x="60" y="105" width="81" height="35" fill="#7D69F3"/>
<path d="M104 82H127.5L141 105H104V82Z" fill="#CBC4FA"/>
<path d="M8.99998 15L23 38V140L9.49998 116.5L8.99998 15Z" fill="#8D7AFD"/>
<ellipse cx="40" cy="17" rx="9" ry="4" fill="#D9D8E0"/>
<ellipse cx="40" cy="30" rx="9" ry="4" fill="#7D69F3"/>
<path d="M108 83H126V96.0269C119.958 97.4046 115.9 97.2416 108 96.0269V83Z" fill="#7D69F3"/>
<ellipse cx="117" cy="83" rx="9" ry="4" fill="#D9D8E0"/>
<ellipse cx="117" cy="96" rx="9" ry="4" fill="#7D69F3"/>
<path d="M66 17H84V30.0269C77.9576 31.4046 73.8998 31.2416 66 30.0269V17Z" fill="#7D69F3"/>
<ellipse cx="75" cy="17" rx="9" ry="4" fill="#D9D8E0"/>
<ellipse cx="75" cy="30" rx="9" ry="4" fill="#7D69F3"/>
<ellipse cx="49.5" cy="69" rx="4.5" ry="8" fill="#3D3939"/>
<ellipse cx="75.5" cy="69" rx="4.5" ry="8" fill="#3D3939"/>
<path d="M23 87L29 94.5V120H23V87Z" fill="#535353"/>
<path d="M8.99998 68L23 87V94.5L8.99998 76V68Z" fill="#868686"/>
<path d="M98 93L104 87V120H98V93Z" fill="#535353"/>
<rect x="23" y="107" width="81" height="33" fill="#535353"/>
<path d="M45.7012 125.773H42.1269L41.3242 128H40.164L43.4219 119.469H44.4062L47.6699 128H46.5156L45.7012 125.773ZM42.4668 124.848H45.3672L43.914 120.857L42.4668 124.848ZM53.9512 120.395H51.209V128H50.0898V120.395H47.3535V119.469H53.9512V120.395ZM61.7734 128H60.6426L56.3476 121.426V128H55.2168V119.469H56.3476L60.6543 126.072V119.469H61.7734V128ZM70.2695 126.318C70.2695 126.025 70.1582 125.799 69.9355 125.639C69.7168 125.475 69.332 125.334 68.7812 125.217C68.2344 125.1 67.7988 124.959 67.4746 124.795C67.1543 124.631 66.916 124.436 66.7598 124.209C66.6074 123.982 66.5312 123.713 66.5312 123.4C66.5312 122.881 66.75 122.441 67.1875 122.082C67.6289 121.723 68.1914 121.543 68.875 121.543C69.5937 121.543 70.1758 121.729 70.6211 122.1C71.0703 122.471 71.2949 122.945 71.2949 123.523H70.2051C70.2051 123.227 70.0781 122.971 69.8242 122.756C69.5742 122.541 69.2578 122.434 68.875 122.434C68.4805 122.434 68.1719 122.52 67.9492 122.691C67.7265 122.863 67.6152 123.088 67.6152 123.365C67.6152 123.627 67.7187 123.824 67.9258 123.957C68.1328 124.09 68.5058 124.217 69.0449 124.338C69.5879 124.459 70.0273 124.604 70.3633 124.771C70.6992 124.939 70.9473 125.143 71.1074 125.381C71.2715 125.615 71.3535 125.902 71.3535 126.242C71.3535 126.809 71.1269 127.264 70.6738 127.607C70.2207 127.947 69.6328 128.117 68.9101 128.117C68.4023 128.117 67.9531 128.027 67.5625 127.848C67.1719 127.668 66.8652 127.418 66.6426 127.098C66.4238 126.773 66.3144 126.424 66.3144 126.049H67.3984C67.418 126.412 67.5625 126.701 67.832 126.916C68.1055 127.127 68.4648 127.232 68.9101 127.232C69.3203 127.232 69.6484 127.15 69.8945 126.986C70.1445 126.818 70.2695 126.596 70.2695 126.318ZM73.8496 122.428C74.3301 121.838 74.9551 121.543 75.7246 121.543C77.0644 121.543 77.7402 122.299 77.7519 123.811V128H76.668V123.805C76.664 123.348 76.5586 123.01 76.3515 122.791C76.1484 122.572 75.8301 122.463 75.3965 122.463C75.0449 122.463 74.7363 122.557 74.4707 122.744C74.2051 122.932 73.998 123.178 73.8496 123.482V128H72.7656V119H73.8496V122.428ZM79.0879 124.771C79.0879 124.15 79.209 123.592 79.4512 123.096C79.6973 122.6 80.0371 122.217 80.4707 121.947C80.9082 121.678 81.4062 121.543 81.9648 121.543C82.8281 121.543 83.5254 121.842 84.0566 122.439C84.5918 123.037 84.8594 123.832 84.8594 124.824V124.9C84.8594 125.518 84.7402 126.072 84.5019 126.564C84.2676 127.053 83.9297 127.434 83.4883 127.707C83.0508 127.98 82.5469 128.117 81.9765 128.117C81.1172 128.117 80.4199 127.818 79.8848 127.221C79.3535 126.623 79.0879 125.832 79.0879 124.848V124.771ZM80.1777 124.9C80.1777 125.604 80.3398 126.168 80.664 126.594C80.9922 127.02 81.4297 127.232 81.9765 127.232C82.5273 127.232 82.9648 127.018 83.289 126.588C83.6133 126.154 83.7754 125.549 83.7754 124.771C83.7754 124.076 83.6094 123.514 83.2773 123.084C82.9492 122.65 82.5117 122.434 81.9648 122.434C81.4297 122.434 80.998 122.646 80.6699 123.072C80.3418 123.498 80.1777 124.107 80.1777 124.9ZM91.5742 124.9C91.5742 125.865 91.3535 126.643 90.9121 127.232C90.4707 127.822 89.873 128.117 89.1191 128.117C88.3496 128.117 87.7441 127.873 87.3027 127.385V130.438H86.2187V121.66H87.209L87.2617 122.363C87.7031 121.816 88.3164 121.543 89.1015 121.543C89.8633 121.543 90.4648 121.83 90.9062 122.404C91.3515 122.979 91.5742 123.777 91.5742 124.801V124.9ZM90.4902 124.777C90.4902 124.062 90.3379 123.498 90.0332 123.084C89.7285 122.67 89.3105 122.463 88.7793 122.463C88.123 122.463 87.6308 122.754 87.3027 123.336V126.365C87.6269 126.943 88.123 127.232 88.791 127.232C89.3105 127.232 89.7226 127.027 90.0273 126.617C90.3359 126.203 90.4902 125.59 90.4902 124.777Z" fill="#ABB9EC"/>
<path d="M15.5659 87C10.9999 91 3.00002 98 3 87C2.99998 76 23.0407 66.5992 33.5 62.5" stroke="#5E5A5A" stroke-linecap="round" stroke-linejoin="round"/>
<path d="M103.869 87C106.689 89.2204 112.096 88.5795 116.5 95.5C120 101 112 105.5 103.869 105.5" stroke="#4B4545" stroke-linecap="round" stroke-linejoin="round"/>
<path d="M45 140L59.875 161L61.5 154.5" stroke="#514E4E" stroke-linecap="round" stroke-linejoin="round"/>
<path d="M85 139L99.875 160L101.5 153.5" stroke="#514E4E" stroke-linecap="round" stroke-linejoin="round"/>
<path d="M77.5 84H48C48 89.5 54.4475 92.5 64 92.5C71.5 92.5 77 86.5 77.5 84Z" fill="white"/>
<path d="M75 86H50C50 89.8824 55.464 92 63.5593 92C69.9152 92 74.5763 87.7647 75 86Z" fill="#F27373"/>
</svg>
